HIERARCHY
ROOT Hips
{
 OFFSET 0.000000 0.000000 0.000000
 CHANNELS 6 Xposition Yposition Zposition Yrotation Xrotation Zrotation
 JOINT Chest
 {
  OFFSET 0.000000 11.395451 -0.039534
  CHANNELS 3 Yrotation Xrotation Zrotation
  JOINT Chest2
  {
   OFFSET 0.000000 9.398669 0.071813
   CHANNELS 3 Yrotation Xrotation Zrotation
   JOINT Chest3
   {
    OFFSET 0.000000 8.489801 0.000000
    CHANNELS 3 Yrotation Xrotation Zrotation
    JOINT Chest4
    {
     OFFSET 0.000000 8.489801 0.000000
     CHANNELS 3 Yrotation Xrotation Zrotation
     JOINT Neck
     {
      OFFSET 0.000000 12.404889 0.000000
      CHANNELS 3 Yrotation Xrotation Zrotation
      JOINT Head
      {
       OFFSET 0.000000 8.903270 0.092239
       CHANNELS 3 Yrotation Xrotation Zrotation
       End Site
       {
        OFFSET 0.000000 17.592497 0.007158
       }
      }
     }
     JOINT RightCollar
     {
      OFFSET -3.196775 6.966722 0.000000
      CHANNELS 3 Yrotation Xrotation Zrotation
      JOINT RightShoulder
      {
       OFFSET -15.955896 0.000000 0.000000
       CHANNELS 3 Yrotation Xrotation Zrotation
       JOINT RightElbow
       {
        OFFSET -24.792472 0.000000 0.000000
        CHANNELS 3 Yrotation Xrotation Zrotation
        JOINT RightWrist
        {
         OFFSET -20.900115 0.000000 0.025002
         CHANNELS 3 Yrotation Xrotation Zrotation
         End Site
         {
          OFFSET -16.056692 0.000000 0.000000
         }
        }
       }
      }
     }
     JOINT LeftCollar
     {
      OFFSET 3.196775 6.966722 0.000000
      CHANNELS 3 Yrotation Xrotation Zrotation
      JOINT LeftShoulder
      {
       OFFSET 15.955896 0.000000 0.000000
       CHANNELS 3 Yrotation Xrotation Zrotation
       JOINT LeftElbow
       {
        OFFSET 24.792472 0.000000 0.000000
        CHANNELS 3 Yrotation Xrotation Zrotation
        JOINT LeftWrist
        {
         OFFSET 20.900115 0.000000 0.025002
         CHANNELS 3 Yrotation Xrotation Zrotation
         End Site
         {
          OFFSET 16.056692 0.000000 0.000000
         }
        }
       }
      }
     }
    }
   }
  }
 }
 JOINT RightHip
 {
  OFFSET -9.568995 0.193718 0.019767
  CHANNELS 3 Yrotation Xrotation Zrotation
  JOINT RightKnee
  {
   OFFSET 0.000000 -56.649296 0.015402
   CHANNELS 3 Yrotation Xrotation Zrotation
   JOINT RightAnkle
   {
    OFFSET 0.000000 -41.365147 0.021264
    CHANNELS 3 Yrotation Xrotation Zrotation
    JOINT RightToe
    {
     OFFSET 0.000000 -7.465940 17.672538
     CHANNELS 3 Yrotation Xrotation Zrotation
     End Site
     {
      OFFSET 0.000000 -1.736315 7.837145
     }
    }
   }
  }
 }
 JOINT LeftHip
 {
  OFFSET 9.568995 0.193718 0.019767
  CHANNELS 3 Yrotation Xrotation Zrotation
  JOINT LeftKnee
  {
   OFFSET 0.000000 -56.649296 0.015402
   CHANNELS 3 Yrotation Xrotation Zrotation
   JOINT LeftAnkle
   {
    OFFSET 0.000000 -41.365147 0.021264
    CHANNELS 3 Yrotation Xrotation Zrotation
    JOINT LeftToe
    {
     OFFSET 0.000000 -7.465940 17.672538
     CHANNELS 3 Yrotation Xrotation Zrotation
     End Site
     {
      OFFSET 0.000000 -1.736315 7.837145
     }
    }
   }
  }
 }
}
MOTION
Frames: 7
Frame Time: 0.016667
-61.549536 48.976398 90.246320 81.070110 0.894411 -3.062787 0.429481 8.467129 1.181228 0.168736 3.764247 0.515657 0.168736 3.764247 0.515657 0.123326 2.823330 0.385563 8.060848 24.053521 -2.115335 14.996925 9.094520 -5.789426 5.611221 6.953084 8.259314 -3.030131 -13.313535 74.482449 5.958586 13.687617 -3.313825 0.671229 -2.780057 -0.727406 -1.532849 6.006569 -7.629782 -12.446176 -18.487408 -68.628294 -30.624071 -16.660876 -11.322527 -2.866065 3.289093 -0.582330 -5.118359 -18.196137 -2.429227 3.189116 9.102473 0.551562 7.106308 -5.193032 13.077887 0.000000 0.000000 0.000000 -0.701652 -1.713118 -3.127976 -3.139970 17.937641 0.791496 1.394406 -14.870783 4.017290 -0.016578 -1.959131 0.969517
-60.359393 48.768178 90.689353 81.156265 0.791454 -2.568363 0.592063 8.490841 1.140541 0.241471 3.775131 0.494602 0.241470 3.775127 0.494596 0.177977 2.831542 0.369316 7.990837 24.192644 -2.210432 14.884618 9.356844 -5.926863 5.574664 6.912557 8.180072 -2.787631 -13.291430 74.308160 4.879872 13.933460 -3.740069 0.435417 -2.576596 -0.138500 -1.485708 6.031505 -7.642726 -11.885214 -18.289000 -68.804446 -30.619224 -16.306394 -11.545495 -2.845893 3.348252 -0.463160 -6.167640 -18.000403 -2.321309 3.551138 8.110683 0.662411 8.696633 -5.284321 11.792790 0.000000 0.000000 0.000000 -2.077713 -1.272310 -3.532380 -1.721380 18.576958 0.837220 1.636928 -15.557291 3.885107 -0.019510 -2.387338 0.926911
-59.136993 48.530821 91.083905 81.153648 0.633097 -2.017239 0.757949 8.510467 1.105988 0.315568 3.784208 0.476204 0.315564 3.784209 0.476197 0.233632 2.838408 0.355057 7.934235 24.360679 -2.332884 14.801133 9.677768 -6.113075 5.511388 6.862135 8.075285 -2.496508 -13.343501 74.095911 3.776624 14.199635 -4.251536 0.182164 -2.346206 0.508779 -1.454600 6.065142 -7.692031 -11.161898 -17.991051 -69.080371 -30.362929 -15.793963 -11.659827 -2.793863 3.401316 -0.355341 -7.169922 -17.905525 -2.344323 3.780071 8.044220 0.920503 10.725710 -5.083729 10.202131 0.000000 0.000000 0.000000 -3.424974 -0.901950 -4.052949 -0.202214 19.465931 0.894690 1.903449 -16.270816 3.698696 -0.024032 -2.910793 0.941242
-57.897484 48.307986 91.528200 81.203234 0.470648 -1.476713 0.884618 8.512973 1.086515 0.372061 3.785594 0.465251 0.372061 3.785594 0.465251 0.276059 2.839482 0.346504 7.881694 24.540946 -2.442840 14.720712 10.019952 -6.276725 5.428829 6.761456 8.021820 -2.272482 -13.370404 73.890484 2.847421 14.164484 -4.702627 -0.013890 -2.120244 0.930261 -1.398833 6.013650 -7.777473 -10.430679 -17.569511 -69.316884 -29.746827 -15.237460 -11.715836 -2.680159 3.461310 -0.302935 -8.308572 -17.728004 -2.212438 5.275847 8.238050 1.025294 11.371424 -4.383703 8.969864 0.000000 0.000000 0.000000 -4.406397 -0.685740 -4.495626 0.921395 20.730887 0.873985 2.082419 -16.858654 3.398492 -0.035130 -3.760849 1.069980
-56.615941 48.101888 92.090898 81.377320 0.285004 -0.944814 0.951055 8.487516 1.069342 0.401895 3.774385 0.456490 0.401900 3.774371 0.456495 0.298497 2.831070 0.339765 7.828868 24.735923 -2.515546 14.629416 10.384137 -6.372282 5.318900 6.543991 8.085914 -2.211762 -13.255949 73.721384 2.175648 13.731967 -5.058808 -0.136614 -1.888055 0.971734 -1.268233 5.769015 -7.917617 -9.748167 -16.897904 -69.384372 -28.712976 -14.607705 -11.786693 -2.476664 3.550627 -0.336394 -10.199843 -17.273163 -1.568788 10.124172 8.446770 0.758889 8.869544 -2.767483 8.550326 0.000000 0.000000 0.000000 -4.775809 -0.542513 -4.818901 1.271333 22.411270 0.755790 2.128612 -17.443481 2.994980 -0.056019 -4.878485 1.304751
-55.317287 47.910311 92.703339 81.603393 0.093172 -0.424271 0.978700 8.443470 1.066600 0.414309 3.754859 0.454872 0.414313 3.754841 0.454874 0.307828 2.816428 0.338486 7.780010 24.942511 -2.575755 14.541577 10.768511 -6.445343 5.189326 6.274198 8.199464 -2.219148 -13.119224 73.560105 1.693260 13.005006 -5.359658 -0.215487 -1.670659 0.786244 -1.108936 5.441633 -8.096799 -9.064061 -16.107858 -69.395052 -27.330554 -13.914246 -11.772120 -2.212571 3.656932 -0.421961 -12.219843 -16.718612 -0.790679 16.224774 9.033950 0.337888 4.985942 -0.698879 8.559689 0.000000 0.000000 0.000000 -4.773524 -0.526763 -5.052838 1.211567 24.468090 0.568786 2.072734 -17.902931 2.492616 -0.092357 -6.322872 1.656868
-54.091432 47.770271 93.257764 81.807922 0.000102 0.010958 0.988237 8.397134 1.124294 0.417605 3.734430 0.480375 0.417605 3.734430 0.480375 0.310154 2.801154 0.357599 7.738588 25.135478 -2.658396 14.473292 11.131568 -6.562051 5.072415 6.108836 8.239776 -2.121292 -13.213110 73.364947 1.378343 11.964384 -5.569168 -0.253496 -1.551441 0.549804 -1.027513 5.263275 -8.261363 -8.364309 -15.561662 -69.592698 -25.667163 -13.345206 -11.473313 -1.942478 3.739936 -0.507615 -12.712016 -16.463309 -0.650026 18.718608 10.039420 0.171164 3.174768 0.635726 8.336489 0.000000 0.000000 0.000000 -4.785449 -0.916940 -5.107664 1.354543 26.917784 0.307187 1.899968 -17.714764 1.836070 -0.164393 -8.503629 2.210953
